<svg width="47" height="75" viewBox="0 0 47 75" fill="none" xmlns="http://www.w3.org/2000/svg">
<path fill-rule="evenodd" clip-rule="evenodd" d="M23.2707 3.125C11.5772 3.125 2.09717 18.5156 2.09717 37.5C2.09717 56.4844 11.5772 71.875 23.2707 71.875C34.9643 71.875 44.4443 56.4844 44.4443 37.5C44.4443 18.5156 34.9643 3.125 23.2707 3.125ZM16.9321 30.6031C16.5691 30.0339 16.0829 29.7189 15.5782 29.726C15.0735 29.7331 14.5907 30.0618 14.2338 30.6412C13.8769 31.2206 13.6745 32.0044 13.6701 32.8237C13.6657 33.6431 13.8597 34.4325 14.2104 35.0219L21.9099 47.5219C22.2708 48.1077 22.7603 48.4368 23.2707 48.4368C23.7812 48.4368 24.2707 48.1077 24.6316 47.5219L32.3311 35.0219C32.6817 34.4325 32.8758 33.6431 32.8714 32.8237C32.867 32.0044 32.6646 31.2206 32.3077 30.6412C31.9508 30.0618 31.468 29.7331 30.9633 29.726C30.4586 29.7189 29.9724 30.0339 29.6093 30.6031L23.2707 40.8938L16.9321 30.6031Z" fill="black"/>
</svg>
