<svg width="32" height="44" viewBox="0 0 32 44" fill="none" xmlns="http://www.w3.org/2000/svg">
<path fill-rule="evenodd" clip-rule="evenodd" d="M0.0788578 3.75142C0.0788578 2.78193 0.351584 1.85215 0.837039 1.16661C1.32249 0.481081 1.98091 0.0959521 2.66745 0.0959521H28.4717C28.8119 0.0951674 29.1489 0.189155 29.4634 0.372532C29.7778 0.55591 30.0636 0.825077 30.3043 1.16462C30.545 1.50417 30.736 1.90743 30.8662 2.35131C30.9964 2.79519 31.0633 3.27097 31.0631 3.75142V40.1908C31.0635 40.6713 30.9967 41.1473 30.8667 41.5914C30.7367 42.0354 30.546 42.439 30.3054 42.7789C30.0649 43.1188 29.7792 43.3883 29.4648 43.5722C29.1504 43.756 28.8134 43.8505 28.4731 43.8502H2.66745C2.32739 43.8502 1.99067 43.7556 1.67651 43.5718C1.36236 43.388 1.07693 43.1185 0.836541 42.7789C0.596149 42.4392 0.405504 42.036 0.275498 41.5923C0.145492 41.1485 0.0786728 40.673 0.0788578 40.1928V3.75142ZM12.343 16.7783H16.5385V19.7536C17.1441 18.0432 18.6933 16.5038 21.0214 16.5038C25.4845 16.5038 26.5422 19.9107 26.5422 26.1616V37.7405H22.0256V27.5856C22.0256 24.0256 21.42 22.0168 19.882 22.0168C17.7483 22.0168 16.861 24.1827 16.861 27.5856V37.7405H12.343V16.7783ZM4.59692 37.4681H9.11499V16.5038H4.59692V37.4661V37.4681ZM9.76143 9.66621C9.76995 10.2125 9.70111 10.7557 9.55896 11.2639C9.41681 11.7721 9.20421 12.2351 8.93363 12.6257C8.66306 13.0163 8.33996 13.3266 7.9833 13.5385C7.62663 13.7504 7.2436 13.8595 6.85666 13.8595C6.46972 13.8595 6.08669 13.7504 5.73002 13.5385C5.37336 13.3266 5.05026 13.0163 4.77969 12.6257C4.50911 12.2351 4.29651 11.7721 4.15436 11.2639C4.0122 10.7557 3.94337 10.2125 3.95189 9.66621C3.96861 8.59394 4.28199 7.57354 4.82492 6.82354C5.36785 6.07354 6.09716 5.65358 6.85666 5.65358C7.61616 5.65358 8.34547 6.07354 8.8884 6.82354C9.43133 7.57354 9.74471 8.59394 9.76143 9.66621V9.66621Z" fill="white"/>
</svg>
