<svg width="32" height="44" viewBox="0 0 32 44" fill="none" xmlns="http://www.w3.org/2000/svg">
<path d="M5.72065 0.0959473C2.58662 0.0959473 0.0631104 3.65951 0.0631104 8.0852V35.8609C0.0631104 40.2866 2.58662 43.8502 5.72065 43.8502H16.3812V26.745H13.1782V20.5866H16.3812V15.3252C16.3812 11.1915 18.2737 7.39607 22.6332 7.39607C24.3983 7.39607 25.7036 7.63536 25.7036 7.63536L25.6009 13.3863C25.6009 13.3863 24.2697 13.3686 22.8172 13.3686C21.2451 13.3686 20.993 14.3914 20.993 16.0895V20.5866H25.7258L25.5196 26.7451H20.993V43.8502H25.3898C28.5238 43.8502 31.0473 40.2867 31.0473 35.861V8.08524C31.0473 3.65955 28.5238 0.095991 25.3898 0.095991H5.72062L5.72065 0.0959473Z" fill="white"/>
</svg>
