<svg width="32" height="44" viewBox="0 0 32 44" fill="none" xmlns="http://www.w3.org/2000/svg">
<path d="M15.5236 16.5476C14.7637 16.5476 14.0209 16.8658 13.3891 17.4619C12.7573 18.0581 12.2648 18.9054 11.974 19.8968C11.6832 20.8882 11.6071 21.9791 11.7554 23.0316C11.9036 24.084 12.2696 25.0507 12.8069 25.8095C13.3442 26.5683 14.0288 27.085 14.7741 27.2944C15.5194 27.5037 16.2919 27.3963 16.9939 26.9856C17.6959 26.575 18.296 25.8796 18.7182 24.9874C19.1403 24.0951 19.3657 23.0462 19.3657 21.9731C19.3657 21.2606 19.2663 20.5551 19.0732 19.8968C18.8801 19.2386 18.5971 18.6405 18.2403 18.1367C17.8836 17.6329 17.46 17.2332 16.9939 16.9606C16.5278 16.6879 16.0282 16.5476 15.5236 16.5476V16.5476ZM30.9073 11.1877C30.8991 9.49821 30.6788 7.8242 30.2566 6.24342C29.9457 5.08669 29.4645 4.03623 28.845 3.16134C28.2255 2.28645 27.4816 1.60704 26.6624 1.16793C25.543 0.571696 24.3576 0.260597 23.1612 0.249087C21.1627 0.0959471 20.574 0.0959473 15.5236 0.0959473C10.4732 0.0959473 9.88448 0.0959471 7.886 0.249087C6.68963 0.260597 5.5042 0.571696 4.38478 1.16793C3.56565 1.60704 2.82177 2.28645 2.20223 3.16134C1.58268 4.03623 1.10156 5.08669 0.790608 6.24342C0.368392 7.8242 0.148089 9.49821 0.139939 11.1877C0.031494 14.0098 0.0314941 14.8411 0.0314941 21.9731C0.0314941 29.105 0.031494 29.9364 0.139939 32.7585C0.156614 34.4539 0.376619 36.1331 0.790608 37.7246C1.10018 38.8761 1.58091 39.9205 2.20039 40.7874C2.81728 41.6676 3.56275 42.347 4.38478 42.7782C5.5042 43.3745 6.68963 43.6856 7.886 43.6971C9.88448 43.8502 10.4732 43.8502 15.5236 43.8502C20.574 43.8502 21.1627 43.8502 23.1612 43.6971C24.3576 43.6856 25.543 43.3745 26.6624 42.7782C27.4845 42.347 28.2299 41.6676 28.8468 40.7874C29.4663 39.9205 29.947 38.8761 30.2566 37.7246C30.6784 36.1361 30.8987 34.455 30.9073 32.7585C31.0157 29.9364 31.0157 29.105 31.0157 21.9731C31.0157 14.8411 31.0157 14.0098 30.9073 11.1877V11.1877ZM26.9723 28.6894C26.9226 30.0394 26.7185 31.3692 26.3681 32.6273C26.0673 33.6767 25.6202 34.63 25.0534 35.4305C24.4865 36.231 23.8114 36.8624 23.0683 37.2871C22.169 37.7544 21.222 38.013 20.2642 38.0528H10.783C9.82519 38.013 8.87825 37.7544 7.97895 37.2871C7.2107 36.8839 6.51692 36.2408 5.94948 35.4057C5.38815 34.6208 4.95465 33.6727 4.67913 32.6273C4.34691 31.3586 4.16883 30.0199 4.1524 28.6675V15.2787C4.16883 13.9263 4.34691 12.5875 4.67913 11.3189C4.96462 10.234 5.42008 9.25432 6.01145 8.45302C6.56968 7.66461 7.24039 7.05308 7.97895 6.65909C8.87825 6.19181 9.82519 5.93323 10.783 5.89339H20.2642C21.222 5.93323 22.169 6.19181 23.0683 6.65909C23.8365 7.06224 24.5303 7.70542 25.0977 8.54052C25.6591 9.32536 26.0926 10.2735 26.3681 11.3189C26.699 12.5889 26.8821 13.9261 26.9103 15.2787V21.9731C26.9103 26.4798 27.0188 26.9392 26.9723 28.6675V28.6894ZM24.4936 12.4128C24.3091 11.7061 24.0183 11.0644 23.6412 10.5318C23.264 9.99926 22.8096 9.58858 22.3092 9.3281C21.622 8.99176 20.8984 8.82884 20.1712 8.8468H10.876C10.1452 8.85689 9.42137 9.04946 8.73806 9.41561C8.24531 9.66426 7.79567 10.0582 7.41904 10.5712C7.04241 11.0842 6.74742 11.7045 6.55368 12.3909C6.32869 13.3652 6.21878 14.3852 6.22834 15.4099V28.5362C6.2437 29.5671 6.37981 30.5872 6.63114 31.5553C6.81559 32.2619 7.10641 32.9037 7.48353 33.4362C7.86066 33.9688 8.31511 34.3795 8.81553 34.64C9.47652 34.9832 10.1721 35.1753 10.876 35.2088H20.1712C20.9021 35.1987 21.6259 35.0061 22.3092 34.64C22.8096 34.3795 23.264 33.9688 23.6412 33.4362C24.0183 32.9037 24.3091 32.2619 24.4936 31.5553C24.7528 30.5903 24.8892 29.5682 24.8963 28.5362V15.4099C24.8968 14.3769 24.7602 13.3529 24.4936 12.3909V12.4128ZM15.5236 30.3302C14.7472 30.3302 13.9784 30.1138 13.2612 29.6936C12.5441 29.2733 11.8927 28.6574 11.3444 27.8811C10.7961 27.1048 10.3617 26.1833 10.066 25.1695C9.77025 24.1557 9.61908 23.0695 9.62111 21.9731C9.62112 20.3193 9.9686 18.7027 10.6196 17.3279C11.2705 15.9531 12.1957 14.882 13.278 14.2501C14.3603 13.6182 15.551 13.454 16.6994 13.7782C17.8478 14.1025 18.9022 14.9006 19.7292 16.0715C20.5563 17.2425 21.1187 18.7336 21.3453 20.3562C21.5719 21.9787 21.4525 23.6597 21.0022 25.1864C20.5519 26.7131 19.7909 28.0167 18.8157 28.9324C17.8404 29.848 16.6947 30.3345 15.5236 30.3302V30.3302ZM21.7205 15.2568C21.378 15.2056 21.0611 14.9773 20.8307 14.6157C20.6004 14.2542 20.4729 13.7851 20.4729 13.2988C20.4729 12.8125 20.6004 12.3434 20.8307 11.9819C21.0611 11.6203 21.378 11.392 21.7205 11.3408C22.0629 11.392 22.3799 11.6203 22.6102 11.9819C22.8405 12.3434 22.968 12.8125 22.968 13.2988C22.968 13.7851 22.8405 14.2542 22.6102 14.6157C22.3799 14.9773 22.0629 15.2056 21.7205 15.2568Z" fill="white"/>
</svg>
