<svg width="32" height="44" viewBox="0 0 32 44" fill="none" xmlns="http://www.w3.org/2000/svg">
<path d="M13.0139 16.7089L19.5981 21.9926L13.0139 27.2763V16.7089ZM31.0788 4.78391V39.1623C31.0788 41.7504 29.5919 43.8502 27.7591 43.8502H3.41434C1.58157 43.8502 0.0946045 41.7504 0.0946045 39.1623V4.78391C0.0946045 2.19576 1.58157 0.0959473 3.41434 0.0959473H27.7591C29.5919 0.0959473 31.0788 2.19576 31.0788 4.78391ZM28.1741 22.0024C28.1741 22.0024 28.1741 16.1815 27.6484 13.3883C27.358 11.8451 26.5073 10.6341 25.4215 10.2239C23.4642 9.47186 15.5867 9.47186 15.5867 9.47186C15.5867 9.47186 7.70926 9.47186 5.75199 10.2239C4.66616 10.6341 3.81548 11.8451 3.525 13.3883C2.99938 16.1717 2.99938 22.0024 2.99938 22.0024C2.99938 22.0024 2.99938 27.8233 3.525 30.6165C3.81548 32.1596 4.66616 33.3219 5.75199 33.7321C7.70926 34.4743 15.5867 34.4743 15.5867 34.4743C15.5867 34.4743 23.4642 34.4743 25.4215 33.7223C26.5073 33.3121 27.358 32.1499 27.6484 30.6067C28.1741 27.8233 28.1741 22.0024 28.1741 22.0024V22.0024Z" fill="white"/>
</svg>
