<svg width="32" height="44" viewBox="0 0 32 44" fill="none" xmlns="http://www.w3.org/2000/svg">
<path d="M29.7922 0.0959473H1.28673C0.601207 0.0959473 0.0473633 0.878055 0.0473633 1.84612V42.1001C0.0473633 43.0681 0.601207 43.8502 1.28673 43.8502H29.7922C30.4778 43.8502 31.0316 43.0681 31.0316 42.1001V1.84612C31.0316 0.878055 30.4778 0.0959473 29.7922 0.0959473ZM23.8781 15.9405C23.8897 16.1975 23.8897 16.4655 23.8897 16.728C23.8897 24.757 19.5597 34.0055 11.6471 34.0055C9.20708 34.0055 6.94523 33.0046 5.0397 31.2818C5.38827 31.3365 5.72135 31.3584 6.07767 31.3584C8.09165 31.3584 9.94295 30.3958 11.4186 28.7659C9.52854 28.7112 7.9406 26.9611 7.39837 24.5546C8.06066 24.6913 8.65711 24.6913 9.33876 24.4452C8.36557 24.166 7.49084 23.4196 6.86318 22.3329C6.23553 21.2461 5.89365 19.886 5.89564 18.4837V18.4071C6.46497 18.8611 7.13501 19.14 7.83603 19.1783C7.24672 18.6237 6.76342 17.8723 6.429 16.9907C6.09457 16.1092 5.91935 15.1247 5.91888 14.1247C5.91888 12.9925 6.12802 11.9588 6.5037 11.0619C7.5839 12.9397 8.93183 14.4755 10.4599 15.5695C11.9879 16.6634 13.6619 17.2911 15.3729 17.4117C14.7649 13.2824 16.9493 9.94066 19.5752 9.94066C20.8145 9.94066 21.93 10.6735 22.7162 11.8549C23.6883 11.5979 24.6179 11.0837 25.4467 10.3946C25.1252 11.8002 24.4513 12.9871 23.5567 13.7363C24.4242 13.6051 25.2608 13.266 26.0354 12.7902C25.4506 14.0043 24.7186 15.0818 23.8781 15.9405V15.9405Z" fill="white"/>
</svg>
